<svg id="visual" viewBox="0 0 900 600" width="900" height="600" xmlns="http://www.w3.org/2000/svg" xmlns:xlink="http://www.w3.org/1999/xlink" version="1.1"><rect x="0" y="0" width="900" height="600" fill="#0E040E"></rect><path d="M0 201L25 186.8C50 172.7 100 144.3 150 136.7C200 129 250 142 300 143.2C350 144.3 400 133.7 450 135.8C500 138 550 153 600 155.2C650 157.3 700 146.7 750 146.3C800 146 850 156 875 161L900 166L900 0L875 0C850 0 800 0 750 0C700 0 650 0 600 0C550 0 500 0 450 0C400 0 350 0 300 0C250 0 200 0 150 0C100 0 50 0 25 0L0 0Z" fill="#070626"></path><path d="M0 100L25 105.2C50 110.3 100 120.7 150 119.5C200 118.3 250 105.7 300 109.3C350 113 400 133 450 134C500 135 550 117 600 113.3C650 109.7 700 120.3 750 123.5C800 126.7 850 122.3 875 120.2L900 118L900 0L875 0C850 0 800 0 750 0C700 0 650 0 600 0C550 0 500 0 450 0C400 0 350 0 300 0C250 0 200 0 150 0C100 0 50 0 25 0L0 0Z" fill="#022f4d"></path><path d="M0 126L25 120C50 114 100 102 150 99.7C200 97.3 250 104.7 300 106C350 107.3 400 102.7 450 95C500 87.3 550 76.7 600 82.5C650 88.3 700 110.7 750 122C800 133.3 850 133.7 875 133.8L900 134L900 0L875 0C850 0 800 0 750 0C700 0 650 0 600 0C550 0 500 0 450 0C400 0 350 0 300 0C250 0 200 0 150 0C100 0 50 0 25 0L0 0Z" fill="#005770"></path><path d="M0 68L25 69.8C50 71.7 100 75.3 150 76.5C200 77.7 250 76.3 300 70.2C350 64 400 53 450 52.5C500 52 550 62 600 63.2C650 64.3 700 56.7 750 59.2C800 61.7 850 74.3 875 80.7L900 87L900 0L875 0C850 0 800 0 750 0C700 0 650 0 600 0C550 0 500 0 450 0C400 0 350 0 300 0C250 0 200 0 150 0C100 0 50 0 25 0L0 0Z" fill="#00807e"></path><path d="M0 37L25 39.2C50 41.3 100 45.7 150 47.5C200 49.3 250 48.7 300 47.3C350 46 400 44 450 42.7C500 41.3 550 40.7 600 39.8C650 39 700 38 750 40.7C800 43.3 850 49.7 875 52.8L900 56L900 0L875 0C850 0 800 0 750 0C700 0 650 0 600 0C550 0 500 0 450 0C400 0 350 0 300 0C250 0 200 0 150 0C100 0 50 0 25 0L0 0Z" fill="#38a45b"></path></svg>